<svg xmlns="http://www.w3.org/2000/svg" width="34" height="27" fill="none" style=""><rect id="backgroundrect" width="100%" height="100%" x="0" y="0" fill="none" stroke="none" style="" class="selected"/>










<g class="currentLayer" style=""><title>Layer 1</title><path d="M51.9375,9.34049475 C51.9004,9.338114749999999 51.863,9.338114749999999 51.8261,9.338114749999999 C51.7889,9.338114749999999 51.7518,9.338114749999999 51.7146,9.34049475 C51.7518,9.342724749999999 51.7889,9.345264749999998 51.8261,9.345264749999998 C51.863,9.345264749999998 51.9004,9.342724749999999 51.9375,9.34049475 z" fill="#222222" id="svg_2" class=""/><path d="M143.98,32.84358475 V32.84598475 H143.889 C143.918,32.84598475 143.951,32.84598475 143.98,32.84358475 z" fill="#222222" id="svg_7" class=""/><path d="M0,25.00398475 L12.2141,-4.336808689942018e-19 H15.975 L17.7688,3.67103475 L19.5947,7.40894475 L28.1891,25.00398475 H24.5353 L17.7688,11.14928475 L15.9428,7.41132475 L14.0946,3.62804475 L3.65404,25.00398475 H0 z" fill="#ffffff" id="svg_9" class="" fill-opacity="1"/><path d="M7.33057,25.00408475 L19.5445,0.0001659399999999997 H23.3054 L25.0992,3.67119475 L26.9251,7.40910475 L35.5174,24.99968475 L31.8693,25.011284749999998 L25.0992,11.14938475 L23.2732,7.41149475 L21.425,3.62820475 L10.9844,25.00408475 H7.33057 z" fill="#ffffff" id="svg_10" class="" fill-opacity="1"/></g></svg>