<svg xmlns="http://www.w3.org/2000/svg" width="193" height="25" fill="none"><rect id="backgroundrect" width="100%" height="100%" x="0" y="0" fill="none" stroke="none"/>
<style type="text/css">
	.st0{fill:#222222;}
	.st1{fill:#58C1F5;}
</style>












<g class="currentLayer" style=""><title>Layer 1</title><path class="st0" d="M51.8,21.8 c-3.6,0 -6.5,-2.8 -6.5,-6.3 c0,-3.4 2.8,-6.2 6.4,-6.2 c0,0 0.1,0 0.1,0 c0,0 0.1,0 0.1,0 c3.5,0.1 6.4,2.8 6.4,6.2 C58.3,19 55.4,21.8 51.8,21.8 zM58.3,6.2 v2.4 c-1.7000000000000002,-1.5 -4,-2.4 -6.5,-2.4 c-5.4,0 -9.8,4.2 -9.8,9.4 c0,5.2 4.4,9.4 9.8,9.4 c2.5,0 4.8,-0.9 6.5,-2.4 V25 h3.3 V6.2 H58.3 z" id="svg_1"/><path class="st0" d="M51.9,9.3 c0,0 -0.1,0 -0.1,0 c0,0 -0.1,0 -0.1,0 c0,0 0.1,0 0.1,0 C51.9,9.3 51.9,9.3 51.9,9.3 z" id="svg_2"/><path class="st0" d="M79.6,15.5 l9.8,-9.4 h-4.7 L76.5,14 h-1.7000000000000002 V0 h-3.3 v25 h3.3 v-7.8 h1.6 l0.7000000000000001,0.7000000000000001 l7.4,7.1 h4.7 L79.6,15.5 L79.6,15.5 z" id="svg_3"/><path class="st0" d="M173,14 v1.5 V25 h-3.3 v-9.4 l0,-1.4 c0,0 0,-0.1 0,-0.1 s0,-0.1 0,-0.1 c0,-0.1 0,-0.1 0,-0.2 c-0.2,-2.5 -2.3,-4.4 -4.9,-4.4 c-2.7,0 -4.9,2.1 -4.9,4.7 v11 h-3.3 V6.2 h3.3 v1.6 c1.4,-1 3,-1.6 4.9,-1.6 h0 c1.8,0 3.5,0.6000000000000001 4.9,1.6 c0.6000000000000001,0.4 2.2,2.2 1.7000000000000002,1.6 C172.1,10.2 173,11.4 173,14 z" id="svg_4"/><path class="st0" d="M68.2,0 h-3.3 v25 h3.3 V0 z" id="svg_5"/><path class="st0" d="M144,32.8 L144,32.8 L144,32.8 C143.9,32.8 144,32.8 144,32.8 z" id="svg_6"/><path class="st0" d="M106.3,6.2 l-3.8,7.8 l-1.6,3.2 l-0.4,0.7000000000000001 l-0.4,-0.7000000000000001 L98.7,14 l-3.8,-7.8 h-3.7 L95,14 l1.6,3.2 l1.2,2.4 l0.4,0.8 l0.6000000000000001,1.3 L97.1,25 l-1,2 c0,0 0,0.1 0,0.1 c-0.8,1.5 -2.4,2.6 -4.3,2.6 h-1.3 v3.1 c0.4,0.1 0.8,0.1 1.3,0.1 c0.6000000000000001,0 1.1,-0.1 1.6,-0.2 c1.2,-0.2 2.3,-0.7000000000000001 3.2,-1.4 c0.1,0 0.1,-0.1 0.2,-0.1 c0.6000000000000001,-0.4 1.1,-1 1.6,-1.6 c0.30000000000000004,-0.30000000000000004 0.5,-0.7000000000000001 0.7000000000000001,-1.1 l0.30000000000000004,-0.5 c0,0 0,0 0,0 l1.3,-2.6 l0.2,-0.4 l1.6,-3.3 l0.6000000000000001,-1.3 l1.6,-3.2 l1.6,-3.2 l3.8,-7.8 H106.3 z" id="svg_7"/><path class="st1" d="M0,25 L12.2,0 H16 l1.8,3.7 l1.8,3.7 L28.2,25 h-3.7 l-6.8,-13.9 l-1.8,-3.7 l-1.8,-3.8 L3.7,25 H0 z" id="svg_8"/><path class="st1" d="M7.3,25 L19.5,0 h3.8 l1.8,3.7 l1.8,3.7 L35.5,25 l-3.6,0 l-6.8,-13.9 l-1.8,-3.7 l-1.8,-3.8 L11,25 H7.3 z" id="svg_9"/><path class="st0" d="M121,21.8 c3.6,0 6.5,-2.8 6.5,-6.3 c0,-3.4 -2.8,-6.2 -6.4,-6.2 c0,0 -0.1,0 -0.1,0 c0,0 -0.1,0 -0.1,0 c-3.5,0.1 -6.4,2.8 -6.4,6.2 C114.5,19 117.4,21.8 121,21.8 zM114.5,0.2 v8.4 c1.7000000000000002,-1.5 4,-2.4 6.5,-2.4 c5.4,0 9.8,4.2 9.8,9.4 c0,5.2 -4.4,9.4 -9.8,9.4 c-2.5,0 -4.8,-0.9 -6.5,-2.4 V25 h-3.3 V0.2 H114.5 z" id="svg_10"/><path class="st0" d="M142.9,21.8 c-3.6,0 -6.5,-2.8 -6.5,-6.3 c0,-3.4 2.8,-6.2 6.4,-6.2 c0,0 0.1,0 0.1,0 c0,0 0.1,0 0.1,0 c3.5,0.1 6.4,2.8 6.4,6.2 C149.4,19 146.5,21.8 142.9,21.8 zM149.4,6.2 v2.4 c-1.7000000000000002,-1.5 -4,-2.4 -6.5,-2.4 c-5.4,0 -9.8,4.2 -9.8,9.4 c0,5.2 4.4,9.4 9.8,9.4 c2.5,0 4.8,-0.9 6.5,-2.4 V25 h3.3 V6.2 H149.4 z" id="svg_11"/><path class="st0" d="M184,15.5 l9.8,-9.4 h-4.7 L181,14 h-1.7000000000000002 V0 H176 v25 h3.3 v-7.8 h1.6 l0.7000000000000001,0.7000000000000001 L189,25 h4.7 L184,15.5 L184,15.5 z" id="svg_12"/></g></svg>