<svg width="160" height="33" viewBox="0 0 198.5 33" fill="none" xmlns="http://www.w3.org/2000/svg">
<style type="text/css">
	.st0{fill:#222222;}
	.st1{fill:#58C1F5;}
</style>
<path class="st0" d="M51.8,21.8c-3.6,0-6.5-2.8-6.5-6.3c0-3.4,2.8-6.2,6.4-6.2c0,0,0.1,0,0.1,0c0,0,0.1,0,0.1,0
	c3.5,0.1,6.4,2.8,6.4,6.2C58.3,19,55.4,21.8,51.8,21.8z M58.3,6.2v2.4c-1.7-1.5-4-2.4-6.5-2.4c-5.4,0-9.8,4.2-9.8,9.4
	c0,5.2,4.4,9.4,9.8,9.4c2.5,0,4.8-0.9,6.5-2.4V25h3.3V6.2H58.3z"/>
<path class="st0" d="M51.9,9.3c0,0-0.1,0-0.1,0c0,0-0.1,0-0.1,0c0,0,0.1,0,0.1,0C51.9,9.3,51.9,9.3,51.9,9.3z"/>
<path class="st0" d="M79.6,15.5l9.8-9.4h-4.7L76.5,14h-1.7V0h-3.3v25h3.3v-7.8h1.6l0.7,0.7l7.4,7.1h4.7L79.6,15.5L79.6,15.5z"/>
<path class="st0" d="M173,14v1.5V25h-3.3v-9.4l0-1.4c0,0,0-0.1,0-0.1s0-0.1,0-0.1c0-0.1,0-0.1,0-0.2c-0.2-2.5-2.3-4.4-4.9-4.4
	c-2.7,0-4.9,2.1-4.9,4.7v11h-3.3V6.2h3.3v1.6c1.4-1,3-1.6,4.9-1.6h0c1.8,0,3.5,0.6,4.9,1.6c0.6,0.4,2.2,2.2,1.7,1.6
	C172.1,10.2,173,11.4,173,14z"/>
<path class="st0" d="M68.2,0h-3.3v25h3.3V0z"/>
<path class="st0" d="M144,32.8L144,32.8L144,32.8C143.9,32.8,144,32.8,144,32.8z"/>
<path class="st0" d="M106.3,6.2l-3.8,7.8l-1.6,3.2l-0.4,0.7l-0.4-0.7L98.7,14l-3.8-7.8h-3.7L95,14l1.6,3.2l1.2,2.4l0.4,0.8l0.6,1.3
	L97.1,25l-1,2c0,0,0,0.1,0,0.1c-0.8,1.5-2.4,2.6-4.3,2.6h-1.3v3.1c0.4,0.1,0.8,0.1,1.3,0.1c0.6,0,1.1-0.1,1.6-0.2
	c1.2-0.2,2.3-0.7,3.2-1.4c0.1,0,0.1-0.1,0.2-0.1c0.6-0.4,1.1-1,1.6-1.6c0.3-0.3,0.5-0.7,0.7-1.1l0.3-0.5c0,0,0,0,0,0l1.3-2.6
	l0.2-0.4l1.6-3.3l0.6-1.3l1.6-3.2l1.6-3.2l3.8-7.8H106.3z"/>
<path class="st1" d="M0,25L12.2,0H16l1.8,3.7l1.8,3.7L28.2,25h-3.7l-6.8-13.9l-1.8-3.7l-1.8-3.8L3.7,25H0z"/>
<path class="st1" d="M7.3,25L19.5,0h3.8l1.8,3.7l1.8,3.7L35.5,25l-3.6,0l-6.8-13.9l-1.8-3.7l-1.8-3.8L11,25H7.3z"/>
<path class="st0" d="M121,21.8c3.6,0,6.5-2.8,6.5-6.3c0-3.4-2.8-6.2-6.4-6.2c0,0-0.1,0-0.1,0c0,0-0.1,0-0.1,0
	c-3.5,0.1-6.4,2.8-6.4,6.2C114.5,19,117.4,21.8,121,21.8z M114.5,0.2v8.4c1.7-1.5,4-2.4,6.5-2.4c5.4,0,9.8,4.2,9.8,9.4
	c0,5.2-4.4,9.4-9.8,9.4c-2.5,0-4.8-0.9-6.5-2.4V25h-3.3V0.2H114.5z"/>
<path class="st0" d="M142.9,21.8c-3.6,0-6.5-2.8-6.5-6.3c0-3.4,2.8-6.2,6.4-6.2c0,0,0.1,0,0.1,0c0,0,0.1,0,0.1,0
	c3.5,0.1,6.4,2.8,6.4,6.2C149.4,19,146.5,21.8,142.9,21.8z M149.4,6.2v2.4c-1.7-1.5-4-2.4-6.5-2.4c-5.4,0-9.8,4.2-9.8,9.4
	c0,5.2,4.4,9.4,9.8,9.4c2.5,0,4.8-0.9,6.5-2.4V25h3.3V6.2H149.4z"/>
<path class="st0" d="M184,15.5l9.8-9.4h-4.7L181,14h-1.7V0H176v25h3.3v-7.8h1.6l0.7,0.7L189,25h4.7L184,15.5L184,15.5z"/>
</svg>